<svg width="0" height="0" class="hidden">
  <symbol xmlns="http://www.w3.org/2000/svg" viewBox="0 0 16 17" id="watch-Icon">
    <path d="M8 1.5C4.1402 1.5 1 4.6402 1 8.5C1 12.3598 4.1402 15.5 8 15.5C11.8598 15.5 15 12.3598 15 8.5C15 4.6402 11.8598 1.5 8 1.5ZM8 14.1C4.9123 14.1 2.4 11.5877 2.4 8.5C2.4 5.4123 4.9123 2.9 8 2.9C11.0877 2.9 13.6 5.4123 13.6 8.5C13.6 11.5877 11.0877 14.1 8 14.1Z"></path>
    <path d="M8.125 5.375H6.875V8.75875L8.93312 10.8169L9.81687 9.93312L8.125 8.24125V5.375Z"></path>
  </symbol>
  <symbol fill="transparent" xmlns="http://www.w3.org/2000/svg" viewBox="0 0 32 32" id="vk-icon">
    <g filter="url(#filter0_b_1_926)">
      <rect width="32" height="32" rx="16" fill="white" fill-opacity="0.08"></rect>
      <path d="M22.3859 12.57C22.4793 12.26 22.3859 12.0327 21.9446 12.0327H20.4826C20.1106 12.0327 19.9406 12.2294 19.8473 12.4454C19.8473 12.4454 19.1039 14.258 18.0506 15.4334C17.7106 15.7754 17.5553 15.8834 17.3699 15.8834C17.2773 15.8834 17.1426 15.7754 17.1426 15.4654V12.57C17.1426 12.198 17.0353 12.0327 16.7253 12.0327H14.4279C14.1959 12.0327 14.0559 12.2047 14.0559 12.3687C14.0559 12.7207 14.5826 12.802 14.6366 13.794V15.946C14.6366 16.4174 14.5519 16.5034 14.3653 16.5034C13.8699 16.5034 12.6646 14.684 11.9493 12.6014C11.8099 12.1967 11.6693 12.0334 11.2959 12.0334H9.83459C9.41659 12.0334 9.33325 12.23 9.33325 12.446C9.33325 12.834 9.82859 14.754 11.6406 17.2934C12.8486 19.0274 14.5493 19.9674 16.0986 19.9674C17.0273 19.9674 17.1419 19.7587 17.1419 19.3987V18.088C17.1419 17.6707 17.2306 17.5867 17.5246 17.5867C17.7406 17.5867 18.1126 17.696 18.9799 18.5314C19.9706 19.522 20.1346 19.9667 20.6913 19.9667H22.1526C22.5699 19.9667 22.7786 19.758 22.6586 19.346C22.5273 18.936 22.0539 18.3394 21.4259 17.6334C21.0846 17.2307 20.5746 16.7974 20.4193 16.5807C20.2026 16.3014 20.2653 16.178 20.4193 15.93C20.4193 15.93 22.2006 13.4227 22.3859 12.57Z" fill="#D0BC7A"></path>
      <rect x="0.5" y="0.5" width="31" height="31" rx="15.5" stroke="white" stroke-opacity="0.16"></rect>
    </g>
    <defs>
      <filter id="filter0_b_1_926" x="-24" y="-24" width="80" height="80" filterUnits="userSpaceOnUse" color-interpolation-filters="sRGB">
        <feFlood flood-opacity="0" result="BackgroundImageFix"></feFlood>
        <feGaussianBlur in="BackgroundImage" stdDeviation="12"></feGaussianBlur>
        <feComposite in2="SourceAlpha" operator="in" result="effect1_backgroundBlur_1_926"></feComposite>
        <feBlend mode="normal" in="SourceGraphic" in2="effect1_backgroundBlur_1_926" result="shape"></feBlend>
      </filter>
    </defs>
  </symbol>
  <symbol  xmlns="http://www.w3.org/2000/svg" viewBox="0 0 24 24" id="view-password">
    <path d="M12 7C15.7855 7 21 12 21 12C21 12 15.7855 17 12 17C8.21453 17 3 12 3 12C3 12 8.21453 7 12 7Z" stroke-opacity="0.4" stroke-width="1.5"></path>
    <circle cx="12" cy="12" r="2"  stroke-opacity="0.4" stroke-width="1.5"></circle>
  </symbol>
  <symbol fill="none" xmlns="http://www.w3.org/2000/svg" viewBox="0 0 12 14" id="user-icon">
    <path fill-rule="evenodd" clip-rule="evenodd" d="M3.25023 4.40069C3.25023 2.92539 4.46955 1.70837 5.99983 1.70837C7.53011 1.70837 8.74943 2.92539 8.74943 4.40069C8.74943 5.87599 7.53011 7.093 5.99983 7.093C4.46955 7.093 3.25023 5.87599 3.25023 4.40069ZM5.99983 0.208374C3.66456 0.208374 1.75023 2.07371 1.75023 4.40069C1.75023 6.72766 3.66456 8.593 5.99983 8.593C8.3351 8.593 10.2494 6.72766 10.2494 4.40069C10.2494 2.07371 8.3351 0.208374 5.99983 0.208374ZM2.375 13.6657C2.375 12.1787 3.58039 10.9734 5.06731 10.9734H6.93168C8.4186 10.9734 9.624 12.1787 9.624 13.6657H11.124C11.124 11.3503 9.24703 9.47335 6.93168 9.47335H5.06731C2.75196 9.47335 0.875 11.3503 0.875 13.6657H2.375Z" fill="#D0BC7A"></path>
  </symbol>
  <symbol fill="none" xmlns="http://www.w3.org/2000/svg" viewBox="0 0 14 14" id="search-icon">
    <path d="M9.88889 9.97618C10.98 9.03449 11.6667 7.666 11.6667 6.14286C11.6667 3.30254 9.27885 1 6.33333 1C3.38781 1 1 3.30254 1 6.14286C1 8.98318 3.38781 11.2857 6.33333 11.2857C7.6993 11.2857 8.94532 10.7905 9.88889 9.97618ZM9.88889 9.97618L13 13" stroke="#D0BC7A" stroke-width="1.5"></path>
  </symbol>
  <symbol fill="none" xmlns="http://www.w3.org/2000/svg" viewBox="0 0 14 14" id="phone-icon">
    <path d="M3.66375 1H1.1579C1.1579 1 0.802622 3.74333 1.1579 5.44079C1.59925 7.54946 2.10164 8.85162 3.62501 10.375C5.14838 11.8984 6.45053 12.4007 8.55921 12.8421C10.2567 13.1974 13 12.8421 13 12.8421V10.3363C13 9.47539 12.4491 8.71111 11.6325 8.43888L10.5094 8.06453C10.2293 7.97116 9.9209 8.06903 9.7459 8.30685C9.10435 9.17871 7.82256 9.23788 7.10341 8.42884L5.66526 6.81092C5.01395 6.07819 5.05613 4.96226 5.7609 4.28078C5.96331 4.08506 6.03545 3.79056 5.94642 3.52344L5.56112 2.36754C5.28889 1.55086 4.52461 1 3.66375 1Z" stroke="#D0BC7A" stroke-width="1.5"></path>
  </symbol>
  <symbol xmlns="http://www.w3.org/2000/svg" viewBox="0 0 24 24" id="no-view">
    <path d="M12 7C15.7855 7 21 12 21 12C21 12 15.7855 17 12 17C8.21453 17 3 12 3 12C3 12 8.21453 7 12 7Z" stroke-width="1.5"></path>
    <circle cx="12" cy="12" r="2" stroke-width="1.5"></circle>
    <path d="M5 19L19 5" stroke-width="1.5" stroke-linecap="round" stroke-linejoin="round"></path>
  </symbol>
  <symbol xmlns="http://www.w3.org/2000/svg" viewBox="0 0 16 16" id="nav-icon">
    <path d="M8.00126 9.33272C9.47193 9.33272 10.6679 8.13672 10.6679 6.66606C10.6679 5.19539 9.47193 3.99939 8.00126 3.99939C6.53059 3.99939 5.33459 5.19539 5.33459 6.66606C5.33459 8.13672 6.53059 9.33272 8.00126 9.33272ZM8.00126 5.33272C8.73659 5.33272 9.33459 5.93072 9.33459 6.66606C9.33459 7.40139 8.73659 7.99939 8.00126 7.99939C7.26593 7.99939 6.66793 7.40139 6.66793 6.66606C6.66793 5.93072 7.26593 5.33272 8.00126 5.33272Z"></path>
    <path d="M7.61335 14.5427C7.72935 14.6254 7.86468 14.6667 8.00002 14.6667C8.13535 14.6667 8.27068 14.6254 8.38668 14.5427C8.58935 14.3994 13.3527 10.96 13.3334 6.66671C13.3334 3.72604 10.9407 1.33337 8.00002 1.33337C5.05935 1.33337 2.66668 3.72604 2.66668 6.66337C2.64735 10.96 7.41069 14.3994 7.61335 14.5427ZM8.00002 2.66671C10.206 2.66671 12 4.46071 12 6.67004C12.014 9.62871 9.07468 12.2854 8.00002 13.1567C6.92602 12.2847 3.98602 9.62737 4.00002 6.66671C4.00002 4.46071 5.79402 2.66671 8.00002 2.66671Z" ></path>
  </symbol>
  <symbol fill="none" xmlns="http://www.w3.org/2000/svg" viewBox="0 0 16 15" id="like-icon">
    <path d="M13.9205 2.06089C13.5784 1.72455 13.1722 1.45775 12.7252 1.27572C12.2782 1.09369 11.799 1 11.3151 1C10.8312 1 10.3521 1.09369 9.90504 1.27572C9.45801 1.45775 9.05185 1.72455 8.70976 2.06089L7.99982 2.75857L7.28988 2.06089C6.5989 1.38184 5.66172 1.00035 4.68453 1.00035C3.70733 1.00035 2.77016 1.38184 2.07917 2.06089C1.38819 2.73994 1 3.66092 1 4.62124C1 5.58157 1.38819 6.50255 2.07917 7.1816L2.78911 7.87928L7.99982 13L13.2105 7.87928L13.9205 7.1816C14.2627 6.84543 14.5342 6.44628 14.7194 6.00697C14.9047 5.56765 15 5.09678 15 4.62124C15 4.14571 14.9047 3.67484 14.7194 3.23552C14.5342 2.79621 14.2627 2.39706 13.9205 2.06089V2.06089Z" stroke="#D0BC7A" stroke-width="1.5"></path>
  </symbol>
  <symbol xmlns="http://www.w3.org/2000/svg" viewBox="0 0 22 18" id="item-like">
    <path d="M15.8398 0C14.093 0 12.5616 0.778928 11.4113 2.25262C11.2579 2.44917 11.1212 2.64579 11 2.83623C10.8788 2.64575 10.7421 2.44917 10.5887 2.25262C9.43837 0.778928 7.90701 0 6.16016 0C2.8602 0 0.5 2.7631 0.5 6.07868C0.5 9.86988 3.60722 13.4429 10.575 17.664C10.7056 17.7431 10.8528 17.7827 11 17.7827C11.1472 17.7827 11.2944 17.7431 11.425 17.664C18.3928 13.443 21.5 9.86992 21.5 6.07872C21.5 2.76486 19.1417 0 15.8398 0Z"></path>
  </symbol>
  <symbol fill="none" xmlns="http://www.w3.org/2000/svg" viewBox="0 0 32 32" id="FB-icon">
    <g filter="url(#filter0_b_1_928)">
      <rect width="32" height="32" rx="16" fill="white" fill-opacity="0.08"></rect>
      <path d="M16 9C12.1342 9 9 12.1531 9 16.0423C9 19.5567 11.5595 22.4697 14.9065 23V18.0784H13.1283V16.0423H14.9065V14.4907C14.9065 12.7243 15.9517 11.7503 17.55 11.7503C18.3158 11.7503 19.1181 11.8876 19.1181 11.8876V13.6195H18.2332C17.3651 13.6195 17.0935 14.1632 17.0935 14.7203V16.0408H19.0334L18.7233 18.077H17.0935V22.9986C20.4405 22.4711 23 19.5574 23 16.0423C23 12.1531 19.8658 9 16 9Z" fill="#D0BC7A"></path>
      <rect x="0.5" y="0.5" width="31" height="31" rx="15.5" stroke="white" stroke-opacity="0.16"></rect>
    </g>
    <defs>
      <filter id="filter0_b_1_928" x="-24" y="-24" width="80" height="80" filterUnits="userSpaceOnUse" color-interpolation-filters="sRGB">
        <feFlood flood-opacity="0" result="BackgroundImageFix"></feFlood>
        <feGaussianBlur in="BackgroundImage" stdDeviation="12"></feGaussianBlur>
        <feComposite in2="SourceAlpha" operator="in" result="effect1_backgroundBlur_1_928"></feComposite>
        <feBlend mode="normal" in="SourceGraphic" in2="effect1_backgroundBlur_1_928" result="shape"></feBlend>
      </filter>
    </defs>
  </symbol>
  <symbol fill="none" xmlns="http://www.w3.org/2000/svg" viewBox="0 0 32 32" id="IG-icon">
    <g filter="url(#filter0_b_1_930)">
      <rect width="32" height="32" rx="16" fill="white" fill-opacity="0.08"></rect>
      <path d="M21.9647 13.5366C21.9573 13.032 21.864 12.5313 21.6853 12.0593C21.3727 11.2533 20.736 10.616 19.93 10.304C19.464 10.1286 18.9713 10.0346 18.4727 10.024C17.8313 9.9953 17.628 9.9873 16 9.9873C14.372 9.9873 14.1633 9.9873 13.5267 10.024C13.0287 10.0346 12.536 10.1286 12.07 10.304C11.264 10.616 10.6267 11.2533 10.3147 12.0593C10.1393 12.5253 10.0447 13.018 10.0353 13.516C10.0067 14.158 9.998 14.3613 9.998 15.9893C9.998 17.6173 9.998 17.8253 10.0353 18.4626C10.0453 18.9613 10.1393 19.4533 10.3147 19.9206C10.6273 20.726 11.264 21.3633 12.0707 21.6753C12.5347 21.8566 13.0273 21.9593 13.5273 21.9753C14.1693 22.004 14.3727 22.0126 16.0007 22.0126C17.6287 22.0126 17.8373 22.0126 18.474 21.9753C18.972 21.9653 19.4647 21.8713 19.9313 21.696C20.7373 21.3833 21.374 20.746 21.6867 19.9406C21.862 19.474 21.956 18.982 21.966 18.4826C21.9947 17.8413 22.0033 17.638 22.0033 16.0093C22.002 14.3813 22.002 14.1746 21.9647 13.5366ZM15.996 19.068C14.2933 19.068 12.914 17.6886 12.914 15.986C12.914 14.2833 14.2933 12.904 15.996 12.904C17.6973 12.904 19.078 14.2833 19.078 15.986C19.078 17.6886 17.6973 19.068 15.996 19.068ZM19.2007 13.5086C18.8027 13.5086 18.482 13.1873 18.482 12.79C18.482 12.3926 18.8027 12.0713 19.2007 12.0713C19.5973 12.0713 19.9187 12.3926 19.9187 12.79C19.9187 13.1873 19.5973 13.5086 19.2007 13.5086Z" fill="#D0BC7A"></path>
      <path d="M15.996 17.988C17.1017 17.988 17.998 17.0917 17.998 15.986C17.998 14.8803 17.1017 13.984 15.996 13.984C14.8903 13.984 13.994 14.8803 13.994 15.986C13.994 17.0917 14.8903 17.988 15.996 17.988Z" fill="#D0BC7A"></path>
      <rect x="0.5" y="0.5" width="31" height="31" rx="15.5" stroke="white" stroke-opacity="0.16"></rect>
    </g>
    <defs>
      <filter id="filter0_b_1_930" x="-24" y="-24" width="80" height="80" filterUnits="userSpaceOnUse" color-interpolation-filters="sRGB">
        <feFlood flood-opacity="0" result="BackgroundImageFix"></feFlood>
        <feGaussianBlur in="BackgroundImage" stdDeviation="12"></feGaussianBlur>
        <feComposite in2="SourceAlpha" operator="in" result="effect1_backgroundBlur_1_930"></feComposite>
        <feBlend mode="normal" in="SourceGraphic" in2="effect1_backgroundBlur_1_930" result="shape"></feBlend>
      </filter>
    </defs>
  </symbol>
  <symbol xmlns="http://www.w3.org/2000/svg" viewBox="0 0 16 17" id="email-icon">
    <path d="M2.00065 2.5H14.0007C14.1775 2.5 14.347 2.57024 14.4721 2.69526C14.5971 2.82029 14.6673 2.98986 14.6673 3.16667V13.8333C14.6673 14.0101 14.5971 14.1797 14.4721 14.3047C14.347 14.4298 14.1775 14.5 14.0007 14.5H2.00065C1.82384 14.5 1.65427 14.4298 1.52925 14.3047C1.40422 14.1797 1.33398 14.0101 1.33398 13.8333V3.16667C1.33398 2.98986 1.40422 2.82029 1.52925 2.69526C1.65427 2.57024 1.82384 2.5 2.00065 2.5ZM13.334 5.32533L8.04865 10.0587L2.66732 5.31067V13.1667H13.334V5.32533ZM3.00798 3.83333L8.04132 8.27467L13.002 3.83333H3.00798Z"></path>
  </symbol>
  <symbol fill="none" xmlns="http://www.w3.org/2000/svg" viewBox="0 0 13 11" id="cedro-icon">
    <g opacity="0.4">
      <path d="M5.86248 0H6.44968C6.48556 0 6.51997 0.0133702 6.54535 0.0371692C6.57072 0.0609682 6.58498 0.0932466 6.58498 0.126904V10.8731C6.58498 10.9068 6.57072 10.939 6.54535 10.9628C6.51997 10.9866 6.48556 11 6.44968 11H5.86248C5.09238 11 4.32983 10.8577 3.61838 10.5812C2.90694 10.3047 2.26054 9.89943 1.71612 9.38856C1.17171 8.87769 0.739937 8.27121 0.445479 7.60378C0.15102 6.93635 -0.000354833 6.22105 6.2456e-07 5.49873C6.2456e-07 4.04038 0.617653 2.64175 1.71708 1.61054C2.81651 0.579329 4.30766 0 5.86248 0Z" fill="white"></path>
      <path d="M12.862 0.000976562H8.20093C8.12471 0.000976562 8.06293 0.0589297 8.06293 0.130418V4.68627C8.06293 4.75776 8.12471 4.81571 8.20093 4.81571H12.862C12.9382 4.81571 13 4.75776 13 4.68627V0.130418C13 0.0589297 12.9382 0.000976562 12.862 0.000976562Z" fill="white"></path>
      <path d="M12.862 6.14453H8.20093C8.12471 6.14453 8.06293 6.20248 8.06293 6.27397V10.8666C8.06293 10.9381 8.12471 10.9961 8.20093 10.9961H12.862C12.9382 10.9961 13 10.9381 13 10.8666V6.27397C13 6.20248 12.9382 6.14453 12.862 6.14453Z" fill="white"></path>
    </g>
  </symbol>
  <symbol  xmlns="http://www.w3.org/2000/svg" viewBox="0 0 16 17" id="contact-icon">
    <path d="M5.95133 7.47489C6.68115 8.75704 7.74296 9.81885 9.02511 10.5487L9.71267 9.58578C9.82323 9.43095 9.98672 9.32202 10.1722 9.27959C10.3576 9.23717 10.5522 9.26419 10.7191 9.35556C11.8191 9.95672 13.0339 10.3183 14.2837 10.4164C14.4787 10.4319 14.6608 10.5203 14.7935 10.664C14.9263 10.8077 15 10.9962 15 11.1919V14.6623C15 14.8549 14.9286 15.0406 14.7996 15.1836C14.6706 15.3266 14.4931 15.4166 14.3016 15.4362C13.8893 15.479 13.474 15.5 13.0556 15.5C6.39778 15.5 1 10.1022 1 3.44444C1 3.026 1.021 2.61067 1.06378 2.19844C1.08342 2.00688 1.17343 1.82941 1.31639 1.70038C1.45935 1.57136 1.64509 1.49996 1.83767 1.5H5.30811C5.50377 1.49998 5.69225 1.5737 5.83597 1.70646C5.9797 1.83923 6.0681 2.02128 6.08356 2.21633C6.18173 3.46606 6.54328 4.68086 7.14444 5.78089C7.23581 5.94777 7.26283 6.14235 7.22041 6.32782C7.17798 6.51328 7.06905 6.67677 6.91422 6.78733L5.95133 7.47489ZM3.98978 6.96389L5.46756 5.90844C5.04816 5.00318 4.76083 4.04243 4.61433 3.05556H2.56333C2.55867 3.18467 2.55633 3.31456 2.55633 3.44444C2.55556 9.24356 7.25644 13.9444 13.0556 13.9444C13.1854 13.9444 13.3153 13.9421 13.4444 13.9367V11.8857C12.4576 11.7392 11.4968 11.4518 10.5916 11.0324L9.53611 12.5102C9.11118 12.3451 8.69845 12.1502 8.301 11.9269L8.25589 11.9012C6.73034 11.033 5.467 9.76966 4.59878 8.24411L4.57311 8.199C4.34982 7.80155 4.15489 7.38882 3.98978 6.96389Z"></path>
  </symbol>
  <symbol xmlns="http://www.w3.org/2000/svg" viewBox="0 0 16 16" id="arrow-icon">
    <path d="M7.24475 11L10.2448 8L7.24475 5"  stroke-width="1.5" stroke-linecap="round" stroke-linejoin="round"></path>
    <rect x="0.75" y="0.75" width="14.5" height="14.5" rx="7.25"  stroke-width="1.5"></rect>
  </symbol>
<symbol fill="none" xmlns="http://www.w3.org/2000/svg" viewBox="0 0 15 15" id="case-icon">
    <path d="M4.46667 5.33333H2C1.44772 5.33333 1 5.78105 1 6.33333V13C1 13.5523 1.44772 14 2 14H13C13.5523 14 14 13.5523 14 13V6.33333C14 5.78105 13.5523 5.33333 13 5.33333H10.5333M4.46667 5.33333V8.36667M4.46667 5.33333H10.5333M4.46667 5.33333V4.03333C4.46667 2.35807 5.82474 1 7.5 1V1C9.17526 1 10.5333 2.35807 10.5333 4.03333V5.33333M10.5333 8.36667V5.33333" stroke="#D0BC7A" stroke-width="1.5"></path>
  </symbol>
</svg>



